<?xml version="1.0" encoding="UTF-8"?> <svg xmlns="http://www.w3.org/2000/svg" id="Layer_1" viewBox="0 0 360.46 146.05"><defs><style> .cls-1 { fill: #fff; } </style></defs><path class="cls-1" d="M40.78,63.88l-10.48,34.46h-12.9L.63,47.71h13.06l10.63,36.36,11.24-36.36h10.55l11.16,36.44,10.63-36.44h13.06l-16.7,50.63h-12.91l-10.55-34.46Z"></path><path class="cls-1" d="M86.18,47.71h42.66v9.79h-30.82v10.32h29.91v9.57h-29.91v11.16h30.82v9.79h-42.66v-50.63Z"></path><path class="cls-1" d="M137.72,47.71h30.14c11.24,0,17.92,6.6,17.92,16.47,0,8.5-4.86,13.44-12.15,15.33l12.68,18.83h-14.04l-11.31-17.84h-11.39v17.84h-11.84v-50.63ZM166.34,70.71c4.48,0,7.44-2.51,7.44-6.6s-2.96-6.53-7.44-6.53h-16.78v13.13h16.78Z"></path><path class="cls-1" d="M194.2,47.71h42.66v9.79h-30.82v10.32h29.91v9.57h-29.91v11.16h30.82v9.79h-42.66v-50.63Z"></path><path class="cls-1" d="M245.74,47.71h16.4l13.97,32.11,13.97-32.11h16.47v50.63h-11.77v-36.21l-15.79,36.21h-5.77l-15.71-36.21v36.21h-11.77v-50.63Z"></path><path class="cls-1" d="M317.17,47.71h42.66v9.79h-30.82v10.32h29.91v9.57h-29.91v11.16h30.82v9.79h-42.66v-50.63Z"></path></svg> 