<?xml version="1.0" encoding="UTF-8"?> <svg xmlns="http://www.w3.org/2000/svg" id="Layer_1" viewBox="0 0 360.46 146.05"><defs><style> .cls-1 { fill: #fff; } </style></defs><path class="cls-1" d="M107.57,45.07v55.82l-29.35-33.9c-1.08-1.25-3.03-1.25-4.11,0l-9.88,11.4c-1.08,1.25-3.03,1.25-4.11,0l-17.68-20.42c-1.09-1.25-3.03-1.25-4.11,0L1.01,101.06v-56.01c0-2.82,2.29-5.11,5.11-5.11h96.32c2.83,0,5.13,2.3,5.13,5.13Z"></path><path class="cls-1" d="M118.42,40.34h7.12l8.02,13.1c1.8,3.04,4.17,7.95,4.17,7.95h.08s-.37-5.4-.37-8.84v-12.21h6.67v30.18h-7.16l-7.94-12.94c-1.84-3.04-4.22-8.07-4.22-8.07h-.08s.37,5.44.37,8.88v12.13h-6.67v-30.18Z"></path><path class="cls-1" d="M148.9,55.42c0-9.05,5.81-15.74,15.06-15.74s15.02,6.69,15.02,15.74-5.81,15.7-15.02,15.7-15.06-6.69-15.06-15.7ZM171.86,55.42c0-5.72-2.62-10.14-7.86-10.14s-7.98,4.42-7.98,10.14,2.7,10.02,7.98,10.02,7.86-4.34,7.86-10.02Z"></path><path class="cls-1" d="M183.67,40.6h14.49c5.93,0,10.39,3.12,10.39,8.64,0,3.53-1.76,6.09-5.65,7.34v.12c3.03.93,4.38,2.6,4.79,5.84.57,4.1.33,7.51,1.31,7.91v.32h-6.87c-.82-.45-.74-3.65-1.11-6.98-.37-3-1.88-4.54-5.24-4.54h-5.16v11.52h-6.96v-30.18ZM190.63,54.15h6.18c3.11,0,4.79-1.58,4.79-3.98s-1.51-4.1-4.58-4.1h-6.38v8.07Z"></path><path class="cls-1" d="M213.28,40.34h12.69c8.55,0,14.04,6.05,14.04,15.3s-5.12,14.89-14.45,14.89h-12.28v-30.18ZM225.03,64.68c5.28,0,7.86-3.29,7.86-9.05s-2.62-9.45-7.73-9.45h-4.87v18.5h4.75Z"></path><path class="cls-1" d="M244.21,40.34h7v30.18h-7v-30.18Z"></path><path class="cls-1" d="M255.28,55.55c0-9.01,5.85-15.74,14.94-15.74,3.36,0,6.26.81,8.35,2.35,2.74,1.99,4.34,4.95,4.71,8.36h-6.96c-.41-2.84-2.7-4.95-6.14-4.95-5.2,0-7.78,4.26-7.78,9.98s3.03,9.94,7.82,9.94c3.72,0,6.02-2.39,6.34-5.52h7c-.2,3-1.6,5.8-3.68,7.83-2.29,2.23-5.4,3.41-9.66,3.41-8.88,0-14.94-6.65-14.94-15.66Z"></path><path class="cls-1" d="M118.42,75.5h7v30.18h-7v-30.18Z"></path><path class="cls-1" d="M130.61,75.5h7.12l8.02,13.1c1.8,3.04,4.17,7.95,4.17,7.95h.08s-.37-5.4-.37-8.84v-12.21h6.67v30.18h-7.16l-7.94-12.94c-1.84-3.04-4.22-8.07-4.22-8.07h-.08s.37,5.44.37,8.89v12.13h-6.67v-30.18Z"></path><path class="cls-1" d="M161.81,75.5h22.34v5.88h-15.39v6.57h12.85v5.64h-12.85v12.09h-6.96v-30.18Z"></path><path class="cls-1" d="M188.92,75.5h6.96v24.26h14.04v5.92h-20.99v-30.18Z"></path><path class="cls-1" d="M214.61,95.17v-19.68h6.96v19.84c0,3.29,1.76,5.31,5.69,5.31,3.64,0,5.52-2.15,5.52-5.44v-19.72h7v19.68c0,7.02-4.38,11.08-12.52,11.08s-12.64-3.98-12.64-11.08Z"></path><path class="cls-1" d="M245.35,75.5h22.83v5.76h-15.88v6h13.75v5.48h-13.75v7.02h16.16v5.92h-23.12v-30.18Z"></path><path class="cls-1" d="M274.09,75.5h7.12l8.02,13.1c1.8,3.04,4.17,7.95,4.17,7.95h.08s-.37-5.4-.37-8.84v-12.21h6.67v30.18h-7.16l-7.94-12.94c-1.84-3.04-4.22-8.07-4.22-8.07h-.08s.37,5.44.37,8.89v12.13h-6.67v-30.18Z"></path><path class="cls-1" d="M303.76,90.71c0-9.01,5.85-15.74,14.94-15.74,3.36,0,6.26.81,8.35,2.35,2.74,1.99,4.34,4.95,4.71,8.36h-6.96c-.41-2.84-2.7-4.95-6.14-4.95-5.2,0-7.78,4.26-7.78,9.98s3.03,9.94,7.82,9.94c3.72,0,6.02-2.39,6.34-5.52h7c-.2,3-1.6,5.8-3.68,7.83-2.29,2.23-5.4,3.41-9.66,3.41-8.88,0-14.94-6.65-14.94-15.66Z"></path><path class="cls-1" d="M336.33,75.5h22.83v5.76h-15.88v6h13.75v5.48h-13.75v7.02h16.16v5.92h-23.12v-30.18Z"></path></svg> 