<?xml version="1.0" encoding="UTF-8"?> <svg xmlns="http://www.w3.org/2000/svg" xmlns:xlink="http://www.w3.org/1999/xlink" id="Layer_1" viewBox="0 0 360.46 146.05"><defs><style> .cls-1 { fill: #fff; } .cls-2 { fill: none; } .cls-3 { clip-path: url(#clippath); } </style><clipPath id="clippath"><rect class="cls-2" x="1.21" y="33.1" width="53.23" height="79.84"></rect></clipPath></defs><path class="cls-1" d="M81.81,92.15h4.9v-12.51l5.87-6.7,13.33,19.21h5.77l-15.88-22.92,14.14-16.17h-5.82l-17.4,20.26v-20.26h-4.9v39.09ZM125.09,92.98c8.05,0,12.35-6.42,12.35-14.51s-4.3-14.34-12.35-14.34-12.29,6.26-12.29,14.34,4.13,14.51,12.29,14.51ZM125.19,89.38c-5.11,0-7.67-4.76-7.67-10.91s2.55-10.74,7.56-10.74,7.61,4.6,7.61,10.74-2.55,10.91-7.51,10.91ZM143.2,92.15h4.51v-14.39c0-6.15,2.83-9.58,6.31-9.58,3.1,0,4.95,2.44,4.95,7.48v16.5h4.51v-14.67c0-5.92,2.72-9.3,6.25-9.3,3.21,0,5.01,2.44,5.01,7.25v16.72h4.51v-17.88c0-5.48-1.74-10.13-7.83-10.13-4.68,0-7.18,2.82-8.48,6.26-.65-3.49-2.99-6.26-7.24-6.26-3.97,0-6.8,2.38-8.1,6.09l-.49-5.32h-3.92v27.24h0ZM186.01,82.57c0,6.53,2.83,10.3,8.59,10.3,4.89,0,7.18-2.82,8.54-6.26v5.54h4.24v-27.24h-4.51v14.34c0,5.81-2.61,9.63-6.91,9.63-3.37,0-5.38-2.33-5.38-7.48v-16.5h-4.57s0,17.66,0,17.66ZM214.32,92.15h4.51v-14.45c0-6.03,2.99-9.52,6.96-9.52,3.32,0,5.44,2.27,5.44,7.2v16.77h4.51v-17.72c0-6.42-2.61-10.3-8.16-10.3-4.41,0-7.51,2.88-8.87,6.2l-.49-5.43h-3.92v27.24h0ZM242.58,56.67c0,1.25,1.01,2.26,2.26,2.26s2.26-1.01,2.26-2.26v-.08c0-1.25-1.01-2.26-2.26-2.26s-2.26,1.01-2.26,2.26v.08h0ZM242.58,92.15h4.51v-27.24h-4.51v27.24ZM254.05,92.15h4.51v-9.69l4.35-4.26,9.52,13.95h5.27l-11.86-16.83,10.5-10.41h-5.66l-12.13,12.73v-24.58h-4.51v39.09ZM302.67,92.15c-.71-2.27-.82-3.88-.82-7.42v-11.02c0-6.64-2.88-9.58-9.52-9.58-5.49,0-9.19,2.1-11.31,4.71l2.34,2.99c1.79-2.38,4.35-4.1,8.48-4.1,2.88,0,5.44.83,5.44,5.65v1.72l-6.85,1.05c-5.82.88-10.12,2.71-10.12,8.47,0,5.04,3.26,8.36,8.48,8.36,4.13,0,7.29-2.21,8.7-5.59.05,1.77.27,3.38.71,4.76h4.46,0ZM297.29,81.36c0,4.93-3.37,8.25-7.45,8.25-3.32,0-5.06-2.27-5.06-5.21s1.68-4.43,6.09-5.2l6.42-1.05v3.21h0ZM326.55,92.15h4.35v-39.09h-4.57v16.5c-1.14-2.94-3.97-5.37-8.27-5.37-6.42,0-10.72,5.43-10.72,14.23s4.03,14.4,10.72,14.4c4.19,0,7.02-2.33,8.48-5.98v5.32h0ZM326.33,78.64c0,1.66-.11,3.1-.33,4.15-.71,3.38-2.99,6.31-6.64,6.31-4.62,0-7.29-4.48-7.29-10.69,0-5.81,2.28-10.46,7.18-10.46,3.86,0,6.15,2.88,6.8,6.14.16.83.27,1.99.27,4.26v.28ZM348.91,92.98c8.05,0,12.35-6.42,12.35-14.51s-4.3-14.34-12.35-14.34-12.29,6.26-12.29,14.34,4.13,14.51,12.29,14.51ZM349.02,89.38c-5.11,0-7.67-4.76-7.67-10.91s2.56-10.74,7.56-10.74,7.61,4.6,7.61,10.74-2.56,10.91-7.51,10.91h0Z"></path><g class="cls-3"><g><path class="cls-1" d="M1.21,33.1v34.22c0,1.96.44,3.95,1.39,5.82.9,1.8,2.22,3.36,3.85,4.55l14.25,10.47v-34.3c0-1.97-.45-3.97-1.4-5.84-.91-1.81-2.24-3.37-3.88-4.56L1.21,33.1Z"></path><path class="cls-1" d="M30.67,64.09c-3.3,2.43-5.24,6.29-5.24,10.39v10.63c0,4.1,1.94,7.95,5.23,10.38l4.73,3.48-3.66-3.92c-1.13-1.21-1.68-2.84-1.52-4.49.15-1.65,1-3.15,2.34-4.12l16.59-12.08c1.64-1.19,2.98-2.76,3.89-4.58.92-1.82,1.4-3.82,1.4-5.86v-17.28l-23.76,17.44Z"></path><path class="cls-1" d="M30.67,95.51c-3.3-2.43-5.25-6.29-5.24-10.38v-10.64c0-4.1,1.94-7.95,5.23-10.38l4.73-3.48-3.66,3.92c-1.13,1.21-1.68,2.84-1.52,4.49.15,1.65,1,3.15,2.34,4.12l16.59,12.07c1.64,1.19,2.98,2.76,3.89,4.57.92,1.82,1.4,3.82,1.4,5.86v17.28l-23.76-17.44h0Z"></path><path class="cls-1" d="M30.67,64.09c-3.3,2.43-5.24,6.29-5.24,10.39v10.63c0,4.1,1.94,7.95,5.23,10.38l4.73,3.48-3.66-3.92c-1.13-1.21-1.68-2.84-1.52-4.49.15-1.65,1-3.15,2.34-4.12l16.59-12.08c1.64-1.19,2.98-2.76,3.89-4.58.92-1.82,1.4-3.82,1.4-5.86v-17.28l-23.76,17.44Z"></path></g></g></svg> 