<?xml version="1.0" encoding="UTF-8"?> <svg xmlns="http://www.w3.org/2000/svg" id="Layer_1" viewBox="0 0 642 146.05"><defs><style> .cls-1 { fill: #fff; } </style></defs><g id="Layer_1-2" data-name="Layer_1"><g><path class="cls-1" d="M307.8,42.19l-33.9,32.7,33.9,32.7h-25.1l-26.3-24.5h-20v24.5h-20V42.19h20v24.5h20l26.3-24.5h25.1,0Z"></path><path class="cls-1" d="M331.4,107.59h-20V42.19h20s0,65.4,0,65.4Z"></path><path class="cls-1" d="M424.4,55.19h-60.9v13.3h60.9v12.5h-60.9v13.3h60.9v13.1h-80.8V42.19h80.8v13h0Z"></path><path class="cls-1" d="M518.3,56.69h-61.8v14.8h54.5v13.4h-54.5v22.6h-20V42.19h81.8v14.5Z"></path><path class="cls-1" d="M544.9,107.59h-20V42.19h20s0,65.4,0,65.4Z"></path><path class="cls-1" d="M607.5,107.59h-20v-50.9h-34.5v-14.5h89v14.6h-34.5v50.8Z"></path><polygon class="cls-1" points="180.7 41.89 156.7 41.89 133 65.59 156.9 65.59 180.7 41.89"></polygon><polygon class="cls-1" points="57.5 107.59 123.2 41.89 156.8 41.89 91.1 107.59 57.5 107.59"></polygon><polygon class="cls-1" points="115 107.59 148.6 107.59 175.2 80.89 141.6 80.89 115 107.59"></polygon><polygon class="cls-1" points="0 107.59 33.6 107.59 99.3 41.89 65.7 41.89 0 107.59"></polygon></g></g></svg> 