<?xml version="1.0" encoding="UTF-8"?> <svg xmlns="http://www.w3.org/2000/svg" id="Layer_1" viewBox="0 0 360.46 146.05"><defs><style> .cls-1 { fill: #fff; } </style></defs><path class="cls-1" d="M342.29,137.87H14.29c-7.71,0-13.99-6.28-13.99-13.99V25.99c0-7.71,6.28-13.99,13.99-13.99h309.08l-.77,2.57c-.75,2.49-1.13,5.08-1.13,7.71,0,14.93,12.14,27.07,27.06,27.07,1.78,0,3.59-.18,5.36-.53l2.39-.48v75.53c0,7.71-6.28,13.99-13.99,13.99ZM14.29,16c-5.51,0-9.99,4.48-9.99,9.99v97.89c0,5.51,4.48,9.99,9.99,9.99h328c5.51,0,9.99-4.48,9.99-9.99V53.14c-1.25.15-2.5.23-3.75.23-17.13,0-31.06-13.94-31.06-31.07,0-2.12.22-4.23.64-6.29H14.29Z"></path><path class="cls-1" d="M70.77,95.46h-23.94l-4.23,10.98h-21.6l27.54-63h20.88l27.54,63h-21.96l-4.23-10.98ZM64.92,80.16l-6.12-15.84-6.12,15.84h12.24Z"></path><path class="cls-1" d="M146.46,95.46h-23.94l-4.23,10.98h-21.6l27.54-63h20.88l27.54,63h-21.96l-4.23-10.98ZM140.61,80.16l-6.12-15.84-6.12,15.84h12.24Z"></path><path class="cls-1" d="M273.85,90.42v16.02h-52.38v-63h51.21v16.02h-30.33v7.38h26.64v15.3h-26.64v8.28h31.5Z"></path><path class="cls-1" d="M282.04,43.44h21.24v46.53h28.44v16.47h-49.68v-63Z"></path><path class="cls-1" d="M180.27,79c-1.12,0-2.23,0-3.35,0-.3,0-.61-.02-.9-.1-1.66-.46-2.18-2.04-1.08-3.36,3.43-4.11,6.87-8.22,10.31-12.32,4.53-5.41,9.06-10.82,13.59-16.23.15-.18.29-.35.44-.52.41-.46.9-.53,1.44-.25.51.28.46.73.34,1.2-.97,3.78-1.95,7.56-2.92,11.35-.78,3.02-1.56,6.04-2.33,9.06-.46,1.8.49,3.03,2.39,3.05,2.13.02,4.26,0,6.4,0,.23,0,.46,0,.69,0,.98.05,1.77.45,2.2,1.37.4.87.01,1.55-.54,2.21-3.9,4.64-7.79,9.3-11.68,13.95-4.07,4.86-8.15,9.73-12.22,14.59-.13.16-.25.32-.4.46-.41.41-.88.48-1.39.2-.5-.28-.46-.72-.34-1.2,1.17-4.54,2.33-9.09,3.5-13.63.58-2.26,1.17-4.52,1.75-6.78.45-1.76-.48-3-2.31-3.05-1.19-.03-2.39,0-3.58,0h0Z"></path><path class="cls-1" d="M360.46,29.29h-9.56v9.27h-10.43v-9.27h-9.56v-9.85h9.56v-9.27h10.43v9.27h9.56v9.85Z"></path></svg> 