<?xml version="1.0" encoding="UTF-8"?> <svg xmlns="http://www.w3.org/2000/svg" id="Layer_1" data-name="Layer 1" viewBox="0 0 527 166"><defs><style> .cls-1 { fill: #fff; } </style></defs><path class="cls-1" d="M154.63,17.71H25.7c-3.08,0-5.58,2.5-5.58,5.58v128.92c0,2.97,2.41,5.37,5.38,5.37h129.13c2.97,0,5.37-2.4,5.37-5.37V23.08c0-2.97-2.4-5.38-5.37-5.38ZM136.2,131.55c0,1.23-1,2.23-2.23,2.23h-69.78c-11.19,0-20.26-9.07-20.26-20.27V43.74c0-1.23,1-2.23,2.23-2.23h69.82c11.17,0,20.22,9.05,20.22,20.22v69.83Z"></path><g><path class="cls-1" d="M184.17,91.67V18.94h30.33c5.44,0,10.01.77,13.69,2.31,3.68,1.54,6.45,3.69,8.31,6.46s2.79,5.98,2.79,9.62c0,2.77-.58,5.24-1.74,7.4-1.16,2.17-2.76,3.96-4.79,5.38-2.04,1.42-4.39,2.42-7.07,2.98v.71c2.94.14,5.65.94,8.15,2.38,2.5,1.44,4.5,3.45,6.02,6.02,1.51,2.57,2.27,5.6,2.27,9.11,0,3.91-.99,7.39-2.98,10.46-1.99,3.07-4.87,5.48-8.63,7.24s-8.33,2.65-13.71,2.65h-32.63ZM201.75,48.84h9.73c1.92,0,3.62-.32,5.11-.96,1.49-.64,2.66-1.56,3.5-2.77.84-1.21,1.26-2.66,1.26-4.37,0-2.44-.86-4.36-2.59-5.75-1.73-1.4-4.06-2.1-7-2.1h-10.01v15.94ZM201.75,77.5h10.87c3.81,0,6.62-.72,8.43-2.17,1.81-1.44,2.72-3.46,2.72-6.04,0-1.87-.44-3.49-1.31-4.85-.88-1.36-2.12-2.42-3.73-3.16s-3.54-1.12-5.79-1.12h-11.19v17.33Z"></path><path class="cls-1" d="M250.58,91.67V18.94h50.71v14.28h-33.13v14.91h30.54v14.31h-30.54v14.95h33.13v14.28h-50.71Z"></path><path class="cls-1" d="M309.92,33.21v-14.28h61.47v14.28h-22.05v58.45h-17.33v-58.45h-22.09Z"></path><path class="cls-1" d="M377.64,33.21v-14.28h61.47v14.28h-22.05v58.45h-17.33v-58.45h-22.09Z"></path><path class="cls-1" d="M491.71,63.98c4.01-1.83,7.1-4.49,9.29-7.98,2.2-3.52,3.31-7.8,3.31-12.84s-1.08-9.28-3.24-12.91c-2.15-3.63-5.21-6.43-9.18-8.38-3.96-1.95-8.67-2.93-14.11-2.93h-30.04v72.73h17.57v-24.9h9l13.3,24.9h19.18l-15.08-27.69ZM465.31,33.11h8.67c2.63,0,4.84.37,6.64,1.12,1.8.74,3.16,1.86,4.08,3.33.93,1.48,1.39,3.35,1.39,5.6s-.46,4.09-1.39,5.52c-.92,1.43-2.28,2.5-4.06,3.2-1.79.69-4.01,1.04-6.66,1.04h-8.67v-19.81Z"></path></g><g><path class="cls-1" d="M220.53,113.56c-1.33-2.47-3.28-4.41-5.87-5.83-2.58-1.42-5.77-2.13-9.57-2.13h-18.55v49.46h8.96v-16.71h9.47c3.81,0,7.03-.71,9.63-2.12,2.61-1.4,4.58-3.34,5.92-5.8,1.34-2.47,2-5.28,2-8.45s-.66-5.95-1.99-8.42ZM212.37,126.64c-.68,1.35-1.73,2.41-3.15,3.18-1.42.78-3.24,1.16-5.46,1.16h-8.26v-17.89h8.21c2.24,0,4.07.37,5.5,1.12,1.42.75,2.48,1.79,3.16,3.13.68,1.34,1.03,2.88,1.03,4.64s-.35,3.3-1.03,4.66Z"></path><path class="cls-1" d="M238.65,105.6v49.45h-8.74v-49.45h8.74Z"></path><path class="cls-1" d="M258.31,155.81c-2.35,0-4.46-.42-6.34-1.27-1.88-.85-3.36-2.1-4.44-3.75s-1.63-3.7-1.63-6.13c0-2.09.39-3.82,1.16-5.19.77-1.37,1.83-2.46,3.16-3.28,1.34-.82,2.85-1.44,4.53-1.87,1.68-.43,3.42-.74,5.23-.93,2.17-.23,3.94-.43,5.29-.62,1.35-.19,2.34-.47,2.96-.87.62-.39.93-1.01.93-1.85v-.15c0-1.82-.54-3.23-1.62-4.23s-2.63-1.5-4.66-1.5c-2.14,0-3.84.47-5.08,1.4s-2.09,2.04-2.52,3.31l-8.16-1.16c.64-2.25,1.71-4.14,3.19-5.66,1.48-1.52,3.29-2.66,5.43-3.43,2.14-.76,4.51-1.15,7.1-1.15,1.79,0,3.57.21,5.34.63,1.77.42,3.39,1.11,4.85,2.06,1.46.96,2.64,2.26,3.54,3.9.89,1.64,1.34,3.69,1.34,6.16v24.82h-8.4v-5.1h-.29c-.53,1.03-1.28,1.99-2.23,2.89-.96.89-2.16,1.61-3.6,2.15-1.44.54-3.13.81-5.06.81ZM260.58,149.38c1.75,0,3.28-.35,4.56-1.05,1.29-.7,2.28-1.63,2.98-2.79s1.05-2.42,1.05-3.79v-4.37c-.27.23-.74.43-1.39.63-.65.19-1.38.36-2.19.51-.81.14-1.6.27-2.39.39-.79.11-1.47.21-2.05.29-1.3.18-2.47.47-3.5.87s-1.84.96-2.44,1.68-.89,1.64-.89,2.76c0,1.61.59,2.83,1.76,3.65,1.17.82,2.67,1.23,4.49,1.23Z"></path><path class="cls-1" d="M295.45,133.33v21.73h-8.74v-37.09h8.35v6.3h.43c.85-2.08,2.22-3.73,4.09-4.95,1.88-1.22,4.2-1.83,6.97-1.83,2.56,0,4.79.55,6.7,1.64s3.39,2.68,4.44,4.76,1.57,4.6,1.56,7.56v23.62h-8.74v-22.26c0-2.48-.64-4.42-1.92-5.82-1.28-1.4-3.05-2.1-5.3-2.1-1.53,0-2.89.33-4.07,1-1.18.67-2.11,1.63-2.78,2.89s-1,2.78-1,4.56Z"></path><path class="cls-1" d="M357.48,127.77l-7.97.87c-.23-.81-.62-1.56-1.17-2.27-.56-.71-1.3-1.28-2.23-1.71s-2.08-.65-3.43-.65c-1.82,0-3.34.4-4.58,1.18s-1.84,1.81-1.82,3.07c-.02,1.08.38,1.96,1.2,2.63s2.16,1.23,4.04,1.67l6.33,1.35c3.51.76,6.12,1.96,7.84,3.6,1.71,1.64,2.58,3.79,2.6,6.45-.02,2.33-.7,4.39-2.04,6.17s-3.21,3.17-5.59,4.17c-2.38,1-5.12,1.5-8.21,1.5-4.54,0-8.19-.95-10.96-2.86-2.77-1.91-4.42-4.57-4.95-7.98l8.52-.82c.39,1.67,1.21,2.94,2.46,3.79,1.26.85,2.89,1.28,4.9,1.28s3.75-.43,5.01-1.28c1.26-.85,1.9-1.91,1.9-3.16,0-1.06-.41-1.94-1.22-2.63-.81-.69-2.07-1.22-3.78-1.59l-6.33-1.33c-3.56-.74-6.19-1.99-7.9-3.75-1.71-1.76-2.55-4-2.54-6.7-.02-2.29.61-4.27,1.87-5.95,1.26-1.68,3.03-2.99,5.29-3.91,2.26-.93,4.87-1.39,7.84-1.39,4.35,0,7.77.93,10.27,2.78,2.5,1.85,4.05,4.35,4.65,7.51Z"></path></g></svg> 