<?xml version="1.0" encoding="UTF-8"?> <svg xmlns="http://www.w3.org/2000/svg" id="Layer_1" viewBox="0 0 360.46 146.05"><defs><style> .cls-1 { fill: #fff; } </style></defs><path class="cls-1" d="M79.32,106.63l-.61,14.42h-28.08s20.72-18.26,20.72-18.26c3.07-2.61,8.13-.31,7.98,3.84Z"></path><g><path class="cls-1" d="M167.7,25.15c-8.29,0-13.5,3.53-17.34,11.66l1.23-10.59h-14.73s-10.74,61.07-10.74,61.07h17.34s5.83-33.14,5.83-33.14c3.22-8.9,8.75-13.04,17.8-13.04h2.76s2.92-16.11,2.92-16.11h-5.06v.15Z"></path><path class="cls-1" d="M203,24.99c-16.27,0-25.47,8.13-28.23,23.48l-2.15,11.97c-.31,1.99-.61,4.45-.61,6.44,0,15.5,12.12,21.79,27.47,21.79,14.88,0,23.94-5.83,26.39-20.1h-16.73c-1.07,4.45-4.3,6.44-9.67,6.44-6.91,0-9.97-3.22-9.97-8.9,0-1.23.15-2.46.31-3.84v-.31h37.59s1.53-8.9,1.53-8.9c.31-1.99.61-4.14.61-6.44,0-14.88-11.51-21.64-26.55-21.64ZM212.97,50.16h-21.02s.15-.92.15-.92c1.23-7.37,4.6-10.74,11.51-10.74,6.29,0,9.51,2.76,9.51,8.9,0,1.07,0,1.69-.15,2.76Z"></path><path class="cls-1" d="M277.27,24.99c-6.44,0-11.66,2.15-16.88,7.21l.77-5.83h-14.88s-10.74,61.07-10.74,61.07h17.65s6.91-40.2,6.91-40.2c3.38-4.91,7.06-7.21,11.36-7.21s6.44,2.15,6.44,6.14c0,.92-.15,1.99-.31,3.07l-6.75,38.21h17.49s6.75-38.82,6.75-38.82c.46-2.3.61-4.45.61-6.44,0-11.51-6.75-17.19-18.41-17.19Z"></path><path class="cls-1" d="M334.5,24.99c-15.5,0-23.78,6.44-26.55,20.41h16.88c1.07-4.45,3.53-6.91,9.05-6.91,5.52,0,8.13,2.3,8.13,7.67,0,.31,0,1.53-.31,2.46l-.31,1.23h-11.36c-16.73,0-27.93,5.68-27.93,20.87,0,11.66,6.6,18.11,18.41,18.11,7.21,0,13.04-2.76,17.8-7.98l-.77,6.6h14.88s6.44-37.13,6.44-37.13c.31-1.99.61-4.14.61-6.29,0-13.81-10.89-19.03-25.01-19.03ZM338.18,69.19c-2.76,3.84-6.44,5.98-11.2,5.98s-7.52-1.99-7.52-6.44c0-5.22,3.68-7.52,11.66-7.52h8.29s-1.23,7.98-1.23,7.98Z"></path></g><g><path class="cls-1" d="M143.31,99.42c0-4.76-2.15-6.6-7.83-6.6h-10.43s-4.76,27.16-4.76,27.16l-.15.61h3.68s.15-.61.15-.61l1.84-10.74h6.44s4.6,11.36,4.6,11.36h3.84s-4.76-11.66-4.76-11.66c4.76-.92,7.37-4.14,7.37-9.51ZM132.87,105.86h-6.44s1.69-9.67,1.69-9.67h6.6c3.84,0,4.76.92,4.76,3.68.31,3.68-1.99,5.98-6.6,5.98Z"></path><path class="cls-1" d="M170.16,92.67h-3.84s-14.88,27.62-14.88,27.62h3.84s3.84-7.06,3.84-7.06h11.2s1.23,7.06,1.23,7.06h3.84s-5.22-27.62-5.22-27.62ZM160.95,110l6.6-12.58,2.15,12.58h-8.75Z"></path><path class="cls-1" d="M210.52,92.67l-3.84,21.64-9.05-21.64h-3.99s-4.91,27.62-4.91,27.62h3.53s3.84-22.4,3.84-22.4l9.51,22.4h3.53s4.76-27.62,4.76-27.62h-3.38Z"></path><path class="cls-1" d="M239.82,92.67h-9.36s-4.76,27.62-4.76,27.62h9.51c7.21,0,11.05-3.22,12.28-10.59l1.07-6.29c1.23-7.21-1.53-10.74-8.75-10.74ZM244.89,103.41l-1.07,6.14c-.92,5.37-3.53,7.52-8.75,7.52h-5.37s3.84-21.02,3.84-21.02h5.52c5.22,0,6.91,1.99,5.83,7.37Z"></path><path class="cls-1" d="M283.25,96.04l.61-3.38h-18.11s-4.91,27.62-4.91,27.62h18.57s.61-3.38.61-3.38h-14.88s1.53-9.05,1.53-9.05h12.43s.61-3.38.61-3.38h-12.28s1.38-8.59,1.38-8.59l14.42.15Z"></path><path class="cls-1" d="M316.85,99.42c0-4.76-2.15-6.6-7.83-6.6h-10.43s-4.91,27.62-4.91,27.62h3.68s1.99-11.36,1.99-11.36h6.44s4.6,11.36,4.6,11.36h3.84s-4.76-11.66-4.76-11.66c4.76-.77,7.37-3.99,7.37-9.36ZM306.42,105.86h-6.44s1.69-9.67,1.69-9.67h6.6c3.84,0,4.76.92,4.76,3.68.15,3.68-2.15,5.98-6.6,5.98Z"></path><path class="cls-1" d="M349.39,100.34c0-.46.15-.92.15-1.23,0-4.91-4.3-6.75-9.05-6.75-6.29,0-9.82,3.22-9.82,8.44,0,5.06,3.38,6.29,7.37,7.37,3.53,1.07,6.14,1.53,6.14,4.76,0,2.92-1.99,4.6-6.14,4.6-3.22,0-6.44-1.23-6.44-4.45v-.61s-3.68,0-3.68,0c-.15.46-.15.77-.15,1.23,0,5.22,4.76,7.21,9.97,7.21,6.44,0,9.97-3.07,9.97-8.44s-3.53-6.44-7.98-7.67c-2.76-.92-5.52-1.23-5.52-4.45,0-2.76,1.99-4.6,5.83-4.6,2.76,0,5.68,1.07,5.68,3.99v.61s3.68,0,3.68,0Z"></path></g><path class="cls-1" d="M95.12,74.4l-1.69,46.34h-8.13s1.07-28.39,1.07-28.39c.15-4.14-4.76-6.44-7.98-3.84l-36.37,32.22h-11.66s56.78-50.02,56.78-50.02c3.22-2.92,8.13-.46,7.98,3.68Z"></path><path class="cls-1" d="M127.65,31.29l-17.95,89.31h-10.13s2.3-62.91,2.3-62.91c.15-4.14-4.76-6.44-7.98-3.84L18.25,120.44H2.13S90.21,32.36,90.21,32.36c4.76-4.76,11.36-7.37,17.95-7.37h14.27c3.38.15,5.68,3.07,5.22,6.29Z"></path><path class="cls-1" d="M95.12,74.4l-1.69,46.34h-8.13s1.07-28.39,1.07-28.39c.15-4.14-4.76-6.44-7.98-3.84l-36.37,32.22h-11.66s56.78-50.02,56.78-50.02c3.22-2.92,8.13-.46,7.98,3.68Z"></path><path class="cls-1" d="M95.12,74.4l-1.69,46.34h-8.13s1.07-28.39,1.07-28.39c.15-4.14-4.76-6.44-7.98-3.84l-36.37,32.22h-11.66s56.78-50.02,56.78-50.02c3.22-2.92,8.13-.46,7.98,3.68Z"></path></svg> 