<?xml version="1.0" encoding="UTF-8"?> <svg xmlns="http://www.w3.org/2000/svg" id="Lag_1" data-name="Lag 1" viewBox="0 0 566.23 69.52"><defs><style> .cls-1 { fill: #fff; } </style></defs><path class="cls-1" d="M347.31,68.44h-13.16l-21.38-40.74v40.74h-8.47V20.75h14.16l20.38,38.72V20.75h8.47v47.69Z"></path><path class="cls-1" d="M374.78,19.75c13.49,0,22.86,9.97,22.86,24.85s-9.37,24.85-22.86,24.85-22.84-9.97-22.84-24.85,9.34-24.85,22.84-24.85ZM374.78,61.67c8.84,0,14.06-6.25,14.06-17.08s-5.22-17.08-14.06-17.08-14.04,6.25-14.04,17.08,5.19,17.08,14.04,17.08Z"></path><path class="cls-1" d="M438.25,28.48h-15.51v39.95h-8.77V28.48h-15.51v-7.74h39.79v7.74Z"></path><path class="cls-1" d="M482.73,68.44h-8.77v-19.91h-22.81v19.91h-8.77V20.75h8.77v20.01h22.81v-20.01h8.77v47.69Z"></path><path class="cls-1" d="M520.44,20.75v7.74h-23.81v12.41h21.84v7.5h-21.84v12.31h24.45v7.74h-33.22V20.75h32.58Z"></path><path class="cls-1" d="M524.92,68.44V20.75h23.33c10.1,0,16.69,5.7,16.69,14.22,0,7.52-5.22,12.49-13.24,12.72,3.65.27,6.5,2.85,8.59,7.49l5.94,13.26h-9.69l-5.97-13.22c-1.67-3.69-3.57-4.82-8.29-4.82h-8.59v18.04h-8.77ZM547.18,42.89c5.64,0,8.97-2.75,8.97-7.42s-3.22-7.14-8.99-7.14h-13.47v14.56h13.49Z"></path><path class="cls-1" d="M42.99,68.42h-13.15L8.47,27.7v40.72H0V20.75h14.15l20.37,38.71V20.75h8.47v47.67Z"></path><path class="cls-1" d="M80.68,20.75v7.73h-23.8v12.4h21.84v7.5h-21.84v12.3h24.44v7.73h-33.2V20.75h32.57Z"></path><path class="cls-1" d="M128.04,20.75l-16.37,47.67h-12.64l-16.14-47.67h9.33l13.24,41.17,13.44-41.17h9.13Z"></path><path class="cls-1" d="M163.49,20.75v7.73h-23.8v12.4h21.84v7.5h-21.84v12.3h24.44v7.73h-33.2V20.75h32.57Z"></path><path class="cls-1" d="M167.96,68.42V20.75h23.32c10.1,0,16.69,5.7,16.69,14.22,0,7.52-5.22,12.48-13.24,12.72,3.65.27,6.5,2.85,8.58,7.48l5.93,13.25h-9.68l-5.97-13.22c-1.67-3.68-3.57-4.82-8.28-4.82h-8.58v18.04h-8.77ZM190.21,42.88c5.63,0,8.97-2.75,8.97-7.42s-3.22-7.13-8.98-7.13h-13.47v14.55h13.49Z"></path><path class="cls-1" d="M280.51,28.71l-13.13-28.71h-9.34s15.76,34.46,15.76,34.46c-.69.66-1.38,1.33-2.07,2.03-1.37,1.34-2.75,2.67-4.14,3.98-4.09-1.37-8.39-2.12-12.78-2.1-11.82-.28-31.3,2.57-38.39,13.11-2.81,4.45-2.88,11.24,1.43,14.83,8.64,6.41,20.6,1.98,28.79-2.83,3.2-1.75,7.06-5.27,9.84-7.71,4.06-3.47,8.01-7.16,12.02-10.78,7.01,2.88,13.05,8.05,16.85,14.68l3.99,8.72,9.36.02-16.01-34.99c.43-.3.85-.62,1.29-.91,6.28-4.11,13.71-6.06,21.21-5.31,0,0,.33-6.41.33-6.41-.29-.01-.68-.04-1.2-.04-5.83,0-10.34,1.21-12.07,1.76-5.37,1.71-9.31,4.32-11.72,6.2ZM253.81,52.63c-7.05,6.05-16,11.19-25.48,11.14-4.82-.08-9.28-1.77-7.82-7.32.56-2.7,3.28-5.18,6.41-7.07,8.25-4.69,18.28-6.86,27.8-6.93,3.24-.11,6.45.29,9.54,1.11-3.39,3.12-6.85,6.16-10.45,9.07ZM279.38,46.67c-2.39-1.78-4.95-3.32-7.65-4.56,1.32-1.16,2.66-2.3,4.01-3.41l3.65,7.97Z"></path></svg> 